<svg id="Layer_1" data-name="Layer 1" xmlns="http://www.w3.org/2000/svg" viewBox="0 0 159.72 159.72"><defs><style>.cls-1,.cls-2{fill:#27aae1;stroke:#27aae1;stroke-miterlimit:10;}.cls-1{stroke-width:2px;}</style></defs><title>DevCircle</title><path class="cls-1" d="M79.86,1a78.86,78.86,0,1,0,78.86,78.86A79,79,0,0,0,79.86,1Zm0,154.28a75.42,75.42,0,1,1,75.42-75.42A75.5,75.5,0,0,1,79.86,155.28Z"/><path class="cls-2" d="M76.93,109.9H69.63a1.72,1.72,0,0,1,0-3.44h7.29A1.72,1.72,0,0,1,76.93,109.9Z"/><path class="cls-2" d="M76.93,110.4H69.63a2.22,2.22,0,0,1,0-4.44h7.29A2.22,2.22,0,0,1,76.93,110.4ZM69.63,107a1.22,1.22,0,0,0,0,2.44h7.29a1.22,1.22,0,0,0,0-2.44H69.63Z"/><path class="cls-2" d="M76.93,109.9H26.28a1.72,1.72,0,0,1-1.49-2.58L66.52,35a1.72,1.72,0,0,1,3,.06L85.74,65.84a1.72,1.72,0,1,1-3,1.6l-14.76-28-38.68,67H76.93A1.72,1.72,0,0,1,76.93,109.9Z"/><path class="cls-2" d="M76.93,110.4H26.28a2.22,2.22,0,0,1-1.92-3.33L66.09,34.79a2.22,2.22,0,0,1,3.88.07L86.18,65.61a2.22,2.22,0,0,1-.93,3,2.27,2.27,0,0,1-3-.93L67.92,40.49,30.12,106h46.8A2.22,2.22,0,0,1,76.93,110.4ZM68,34.69A1.21,1.21,0,0,0,67,35.3L25.23,107.57a1.22,1.22,0,0,0,1.06,1.83H76.93a1.22,1.22,0,0,0,0-2.44H28.39L68,38.42,83.14,67.21a1.24,1.24,0,0,0,1.65.51,1.22,1.22,0,0,0,.51-1.65L69.09,35.34A1.22,1.22,0,0,0,68,34.69h0Z"/><path class="cls-2" d="M76.92,109.9a1.69,1.69,0,0,1-.86-0.23,1.72,1.72,0,0,1-.63-2.35l28.25-48.94a1.72,1.72,0,0,1,3,0l28.25,48.94a1.72,1.72,0,0,1-1.49,2.58H95.27a1.72,1.72,0,0,1,0-3.44h35.19L105.18,62.68,78.41,109A1.72,1.72,0,0,1,76.92,109.9Z"/><path class="cls-2" d="M133.44,110.4H95.27a2.22,2.22,0,0,1,0-4.44h34.33L105.18,63.68,78.85,109.29a2.28,2.28,0,0,1-3,.81,2.22,2.22,0,0,1-.81-3l28.25-48.94a2.22,2.22,0,0,1,3.84,0l28.25,48.94A2.22,2.22,0,0,1,133.44,110.4ZM95.27,107a1.22,1.22,0,0,0,0,2.44h38.17a1.22,1.22,0,0,0,1.05-1.83L106.23,58.63a1.27,1.27,0,0,0-2.11,0L75.87,107.57a1.22,1.22,0,0,0,.45,1.66,1.24,1.24,0,0,0,1.66-.44l27.2-47.12L131.33,107H95.27Z"/></svg>